<svg width="698" height="603" viewBox="0 0 698 603" fill="none" xmlns="http://www.w3.org/2000/svg">
<path fill-rule="evenodd" clip-rule="evenodd" d="M0 244.249C0 109.362 156.164 0 348.792 0C541.42 0 697.583 109.362 697.583 244.249C697.583 360.112 582.355 457.107 427.777 482.189C376.219 569.64 245.232 602.458 178.772 602.458C178.772 602.458 262.196 527.373 275.704 483.108C118.145 459.581 0 361.57 0 244.249ZM396.354 43.5355C396.354 43.5355 640.318 102.672 640.318 237.812C640.318 372.89 481.872 425.526 481.872 425.526C481.872 425.526 582.704 325.074 572.113 237.812C558.098 121.728 396.354 43.5355 396.354 43.5355Z" fill="white"/>
<path d="M103.346 275.825V304H99.0954V275.825H103.346ZM111.917 304H107.405L117.544 275.825H122.455L132.594 304H128.082L120.116 280.943H119.896L111.917 304ZM112.674 292.967H127.311V296.544H112.674V292.967ZM165.982 284.726C165.716 283.892 165.359 283.144 164.909 282.484C164.469 281.814 163.942 281.246 163.327 280.778C162.713 280.301 162.011 279.939 161.222 279.691C160.443 279.444 159.585 279.32 158.65 279.32C157.063 279.32 155.633 279.728 154.358 280.544C153.083 281.36 152.074 282.557 151.331 284.135C150.597 285.703 150.231 287.624 150.231 289.899C150.231 292.183 150.602 294.113 151.345 295.691C152.088 297.268 153.106 298.465 154.399 299.281C155.692 300.098 157.164 300.506 158.815 300.506C160.347 300.506 161.681 300.194 162.818 299.57C163.965 298.947 164.85 298.066 165.473 296.929C166.106 295.782 166.423 294.434 166.423 292.884L167.523 293.091H159.462V289.583H170.536V292.788C170.536 295.154 170.032 297.209 169.023 298.951C168.023 300.685 166.638 302.024 164.868 302.968C163.107 303.913 161.089 304.385 158.815 304.385C156.265 304.385 154.028 303.798 152.102 302.624C150.185 301.45 148.69 299.786 147.617 297.63C146.544 295.466 146.007 292.898 146.007 289.926C146.007 287.679 146.319 285.662 146.943 283.873C147.566 282.085 148.442 280.567 149.57 279.32C150.707 278.063 152.042 277.105 153.574 276.444C155.114 275.775 156.797 275.44 158.622 275.44C160.145 275.44 161.562 275.665 162.873 276.114C164.194 276.564 165.368 277.201 166.395 278.027C167.432 278.852 168.289 279.833 168.968 280.971C169.646 282.099 170.105 283.351 170.343 284.726H165.982ZM175.932 304V275.825H193.596V279.485H180.183V288.069H192.675V291.715H180.183V300.341H193.762V304H175.932ZM222.015 275.825V304H218.108L203.787 283.337H203.526V304H199.275V275.825H203.209L217.544 296.516H217.805V275.825H222.015ZM228.216 304V275.825H232.467V289.28H232.811L244.628 275.825H249.98L238.617 288.509L250.021 304H244.904L235.796 291.412L232.467 295.237V304H228.216ZM258.193 275.825V304H253.942V275.825H258.193ZM262.994 279.485V275.825H284.799V279.485H276.008V304H271.771V279.485H262.994Z" fill="#717171"/>
<path d="M170.197 172.311V257H154.731L117.886 203.697H117.266V257H99.3607V172.311H115.074L151.63 225.572H152.374V172.311H170.197ZM184.99 257V172.311H242.056V187.074H202.896V207.253H239.12V222.016H202.896V242.237H242.222V257H184.99ZM273.081 172.311L290.159 201.175H290.821L307.982 172.311H328.203L302.358 214.656L328.782 257H308.188L290.821 228.095H290.159L272.791 257H252.28L278.787 214.656L252.777 172.311H273.081ZM336.308 187.074V172.311H405.862V187.074H379.934V257H362.236V187.074H336.308Z" fill="#422CEC"/>
</svg>
