<svg width="38" height="38" viewBox="0 0 38 38" fill="none" xmlns="http://www.w3.org/2000/svg">
<path fill-rule="evenodd" clip-rule="evenodd" d="M1.58398 16.1544C1.58398 9.41892 9.3819 3.95801 19.0007 3.95801C28.6194 3.95801 36.4173 9.41892 36.4173 16.1544C36.4173 21.9399 30.6635 26.7833 22.9447 28.0358C20.3702 32.4026 13.8295 34.0413 10.5108 34.0413C10.5108 34.0413 14.6766 30.292 15.3511 28.0817C7.48348 26.9068 1.58398 22.0128 1.58398 16.1544ZM21.3757 6.13192C21.3757 6.13192 33.5578 9.08484 33.5578 15.833C33.5578 22.578 25.6459 25.2063 25.6459 25.2063C25.6459 25.2063 30.6809 20.1903 30.1521 15.833C29.4522 10.0364 21.3757 6.13192 21.3757 6.13192Z" fill="#422CEC"/>
</svg>
